<?xml version="1.0" standalone="no"?>
<!DOCTYPE svg PUBLIC "-//W3C//DTD SVG 20010904//EN"
 "http://www.w3.org/TR/2001/REC-SVG-20010904/DTD/svg10.dtd">
<svg version="1.0" xmlns="http://www.w3.org/2000/svg"
 width="167.000000pt" height="167.000000pt" viewBox="0 0 167.000000 167.000000"
 preserveAspectRatio="xMidYMid meet">

<g transform="translate(0.000000,167.000000) scale(0.100000,-0.100000)"
fill="#000000" stroke="none">
<path d="M0 835 l0 -835 835 0 835 0 0 835 0 835 -835 0 -835 0 0 -835z m1060
515 c125 -42 199 -89 295 -185 100 -99 146 -175 187 -305 19 -63 23 -96 23
-210 -1 -125 -3 -141 -32 -223 -33 -93 -75 -170 -127 -231 l-31 -37 -264 311
c-146 170 -265 310 -266 310 -1 0 -120 -140 -266 -310 l-264 -311 -32 38 c-52
61 -102 152 -130 238 -23 70 -27 97 -27 215 -1 115 3 146 22 210 41 130 87
206 187 305 97 97 175 146 295 184 93 29 102 30 240 26 96 -2 140 -8 190 -25z
m-212 -1107 l-3 -138 -173 66 -173 66 173 205 173 206 3 -133 c1 -74 1 -196 0
-272z"/>
</g>
</svg>
